<svg xmlns="http://www.w3.org/2000/svg" width="66" height="66" viewBox="0 0 66 66">
    <g fill="#CACACA" fill-rule="evenodd">
        <path d="M58.75 24.26a27.12 27.12 0 0 1 1.433 8.726c0 14.996-12.2 27.196-27.197 27.196-14.996 0-27.196-12.2-27.196-27.196C5.79 17.99 17.99 5.79 32.986 5.79c2.991 0 5.924.482 8.727 1.432V1.17A32.947 32.947 0 0 0 32.986 0C14.798 0 0 14.798 0 32.986c0 18.19 14.798 32.987 32.986 32.987 18.189 0 32.986-14.798 32.986-32.987 0-2.97-.393-5.895-1.17-8.726h-6.051z"/>
        <text font-family="Roboto-Bold, Roboto" font-size="29" font-weight="bold">
            <tspan x="16.362" y="40">25</tspan>
        </text>
        <path d="M57.105 8.849V2.524h-4.548v6.325H46.27v4.548h6.287v6.325h4.548v-6.325h6.324V8.849z"/>
    </g>
</svg>
