<svg xmlns="http://www.w3.org/2000/svg" width="51" height="51" viewBox="0 0 51 51">
    <g fill="#F04B31" fill-rule="evenodd">
        <path fill-rule="nonzero" d="M49.646 17.502l-16.15-16.15a4.598 4.598 0 0 0-3.273-1.35c-1.239 0-2.402.479-3.273 1.35L1.352 26.952A4.597 4.597 0 0 0 0 30.224c0 1.24.48 2.402 1.352 3.274l1.991 1.991.001.001 13.384 13.384h-1.853a1.062 1.062 0 0 0 0 2.125h21.249a1.063 1.063 0 0 0 0-2.125H24.822l24.824-24.825a4.635 4.635 0 0 0 0-6.547zm-1.502 5.045L22.546 48.145c-.47.469-1.097.728-1.768.729h-.008a2.485 2.485 0 0 1-1.766-.73L5.598 34.739 30.18 10.155a1.062 1.062 0 1 0-1.503-1.502L4.095 33.236l-1.24-1.24c-.471-.471-.73-1.1-.73-1.772 0-.671.259-1.3.73-1.77L28.451 2.854c.47-.47 1.1-.729 1.771-.729.672 0 1.301.259 1.771.73l5.748 5.747L13.16 33.187a1.063 1.063 0 0 0 1.502 1.502l24.584-24.583 8.899 8.898a2.508 2.508 0 0 1 0 3.543z"/>
        <path d="M26.177 30.686a1.063 1.063 0 0 0-1.502 0l-8.36 8.36a1.063 1.063 0 0 0 1.502 1.503l8.36-8.36a1.063 1.063 0 0 0 0-1.503zM22.748 38.623l-3.429 3.429a1.063 1.063 0 0 0 1.503 1.502l3.429-3.429a1.063 1.063 0 0 0-1.503-1.502zM25.904 35.467l-.45.451a1.063 1.063 0 0 0 1.501 1.503l.451-.451a1.062 1.062 0 0 0-1.502-1.503z"/>
        <path fill-rule="nonzero" d="M40.548 16.315a1.062 1.062 0 0 0-1.502 0l-4.508 4.508a1.063 1.063 0 0 0 0 1.503l3.005 3.004a1.06 1.06 0 0 0 1.503 0l4.507-4.507a1.062 1.062 0 0 0 0-1.503l-3.005-3.005zm-2.254 6.762l-1.502-1.503 3.005-3.005 1.502 1.503-3.005 3.005z"/>
        <path d="M31.909 7.987c.272 0 .544-.104.751-.311l.45-.451a1.062 1.062 0 0 0-1.502-1.502l-.45.45a1.062 1.062 0 0 0 .75 1.814zM10.68 35.666l-.451.45a1.063 1.063 0 0 0 1.502 1.503l.451-.45a1.063 1.063 0 0 0-1.502-1.503z"/>
    </g>
</svg>
