<svg xmlns="http://www.w3.org/2000/svg" width="55" height="43" viewBox="0 0 55 43">
    <g fill="none" fill-rule="nonzero">
        <path fill="#F79280" d="M19.759 20.207a5.702 5.702 0 0 0 1.34-3.684c0-3.117-2.48-5.652-5.529-5.652-3.048 0-5.528 2.535-5.528 5.652 0 1.406.505 2.694 1.34 3.684a6.316 6.316 0 0 0-3.26 5.55v4.937c0 .748.592 1.354 1.323 1.354h12.25c.731 0 1.324-.606 1.324-1.354v-4.936c0-2.4-1.322-4.49-3.26-5.55z"/>
        <path fill="#4A4A4A" d="M19.759 20.207a5.702 5.702 0 0 0 1.34-3.684c0-3.117-2.48-5.652-5.529-5.652-3.048 0-5.528 2.535-5.528 5.652 0 1.406.505 2.694 1.34 3.684a6.316 6.316 0 0 0-3.26 5.55v4.937c0 .748.592 1.354 1.323 1.354h12.25c.731 0 1.324-.606 1.324-1.354v-4.936c0-2.4-1.322-4.49-3.26-5.55zm-4.189-6.63c1.589 0 2.881 1.322 2.881 2.946 0 1.614-1.276 2.929-2.851 2.945h-.059c-1.575-.016-2.852-1.331-2.852-2.945 0-1.625 1.293-2.946 2.881-2.946zm4.802 15.764h-9.603v-3.583c0-1.976 1.572-3.584 3.505-3.584h2.593c1.932 0 3.505 1.608 3.505 3.584v3.583zm8.418-13.843c0-.748.593-1.353 1.324-1.353h7.154c.731 0 1.324.605 1.324 1.353 0 .747-.593 1.353-1.324 1.353h-7.154c-.731 0-1.324-.606-1.324-1.353zM49.317.065H5.603C2.513.065 0 2.635 0 5.793v31.332c0 3.159 2.513 5.729 5.603 5.729h31.38a1.553 1.553 0 0 0 .052 0h12.282c3.09 0 5.603-2.57 5.603-5.729V5.793c0-3.158-2.513-5.728-5.603-5.728zm2.956 37.06c0 1.667-1.326 3.022-2.956 3.022h-3.16l.713-1.379c.343-.66.096-1.479-.55-1.829a1.309 1.309 0 0 0-1.789.563l-1.37 2.645H39.21l.714-1.379c.342-.66.096-1.479-.55-1.829a1.31 1.31 0 0 0-1.79.563l-1.37 2.645h-3.952l.714-1.379c.342-.66.096-1.479-.55-1.829a1.31 1.31 0 0 0-1.79.563l-1.37 2.645h-3.952l.714-1.379c.342-.66.096-1.479-.55-1.829a1.31 1.31 0 0 0-1.79.563l-1.37 2.645h-3.952l.715-1.379c.342-.66.095-1.479-.55-1.829a1.31 1.31 0 0 0-1.79.563l-1.37 2.645h-3.952l.714-1.379c.342-.66.096-1.479-.55-1.829a1.31 1.31 0 0 0-1.79.563l-1.37 2.645h-2.82c-1.63 0-2.955-1.355-2.955-3.022V5.793c0-1.666 1.326-3.022 2.956-3.022h3.161L8.05 4.15c-.342.66-.096 1.48.55 1.83a1.31 1.31 0 0 0 1.79-.564l1.37-2.645h3.952l-.714 1.379c-.342.66-.096 1.48.55 1.83a1.31 1.31 0 0 0 1.79-.564l1.37-2.645h3.951l-.714 1.38c-.342.66-.095 1.478.55 1.828a1.31 1.31 0 0 0 1.79-.563l1.37-2.645h3.952l-.714 1.379c-.342.66-.096 1.48.55 1.83a1.31 1.31 0 0 0 1.79-.564l1.37-2.645h3.952l-.714 1.379c-.342.66-.096 1.48.55 1.83a1.31 1.31 0 0 0 1.79-.564l1.37-2.645h3.952l-.714 1.379c-.342.66-.096 1.48.55 1.83a1.31 1.31 0 0 0 1.79-.564l1.37-2.645h2.82c1.63 0 2.955 1.356 2.955 3.022v31.332zm-5.249-9.704c0 .747-.592 1.353-1.323 1.353H30.114c-.731 0-1.324-.606-1.324-1.353 0-.748.593-1.354 1.324-1.354H45.7c.73 0 1.323.606 1.323 1.354zm0-5.376c0 .747-.592 1.353-1.323 1.353H30.114c-.731 0-1.324-.606-1.324-1.353 0-.748.593-1.353 1.324-1.353H45.7c.73 0 1.323.605 1.323 1.353z"/>
    </g>
</svg>
