<svg xmlns="http://www.w3.org/2000/svg" width="75" height="72" viewBox="0 0 75 72">
    <g fill="#CACACA" fill-rule="evenodd">
        <path fill-rule="nonzero" d="M62.968 18.31c0-.781-.178-1.527-.498-2.21a7.162 7.162 0 0 0-.118-.522L58.88 7.029l-.024-.077C57.642 3.36 55.913.032 51.531.032H34.774c-4.49 0-6.078 3.41-7.319 6.9l-3.632 8.57A5.25 5.25 0 0 0 23 18.31v2.66c0 .411.049.813.142 1.2-.09.235-.142.487-.142.753v7.912c0 1.16.947 2.1 2.114 2.1h4.388c1.167 0 2.113-.94 2.113-2.1v-3.957h22.988v3.957c0 1.16.947 2.1 2.114 2.1h4.137c1.168 0 2.114-.94 2.114-2.1v-7.913c0-.265-.052-.518-.141-.751.092-.388.141-.79.141-1.201v-2.66zM30.032 7.79c1.382-3.875 2.494-5.057 4.742-5.057H51.53c2.231 0 3.474 1.319 4.737 5.04l2.533 5.102a7.8 7.8 0 0 0-2.694-.473H29.862c-.862 0-1.685.137-2.444.386l2.614-4.997zm2.176 14.19h-4.63c-.833 0-1.509-.672-1.509-1.5s.676-1.5 1.51-1.5h4.629c.834 0 1.51.672 1.51 1.5s-.677 1.5-1.51 1.5zm16.353-.3H37.793a.953.953 0 0 1-.955-.95c0-.525.427-.95.955-.95h10.768c.529 0 .956.425.956.95 0 .524-.427.95-.956.95zm9.711.3h-4.629c-.834 0-1.51-.672-1.51-1.5s.677-1.5 1.51-1.5h4.63c.834 0 1.51.672 1.51 1.5s-.676 1.5-1.51 1.5z"/>
        <path d="M74.138 43.985a5.746 5.746 0 0 0-7.801-2.168l-16.694 9.351a.901.901 0 0 0-.435.57c-.29 1.183-.976 2.833-2.587 3.983-1.782 1.272-4.193 1.537-7.13.787a.94.94 0 0 1-.051-.014l-9.63-2.974a1.1 1.1 0 1 1 .656-2.101l9.58 2.959.046.013c2.26.567 4.024.41 5.24-.458 1.535-1.096 1.806-3.022 1.838-3.305a.402.402 0 0 0 .002-.028l.001-.007.001-.01v-.005c.183-2.376-1.358-4.57-3.667-5.218l-.043-.013c-.07-.022-7.157-2.325-11.672-3.606-.502-.143-1.884-.474-3.884-.474-2.796 0-6.967.66-10.968 3.805L.336 58.432a.897.897 0 0 0-.153 1.243l8.99 11.812a.907.907 0 0 0 1.274.17l11.58-8.87c.26-.198.61-.273.929-.198l18.704 4.396a5.802 5.802 0 0 0 4.126-.58l26.172-14.66c2.751-1.543 3.73-5.023 2.18-7.76z"/>
    </g>
</svg>
