<svg xmlns="http://www.w3.org/2000/svg" width="57" height="42" viewBox="0 0 57 42">
    <g fill="#F04B31" fill-rule="evenodd">
        <path fill-rule="nonzero" d="M34.07 38.592a4.828 4.828 0 0 0 4.821-4.823 4.828 4.828 0 0 0-4.82-4.824 4.828 4.828 0 0 0-4.821 4.824 4.828 4.828 0 0 0 4.82 4.823zm0-7.314a2.493 2.493 0 0 1 2.49 2.49 2.493 2.493 0 0 1-2.49 2.491 2.493 2.493 0 0 1-2.489-2.49 2.493 2.493 0 0 1 2.49-2.491z"/>
        <path fill-rule="nonzero" d="M57 19.769c0-.645-.522-1.167-1.166-1.167h-11.88V15.09l3.251-2.474a3.71 3.71 0 0 1 2.235-.755h6.394a1.166 1.166 0 0 0 0-2.333H49.44c-1.31 0-2.605.437-3.647 1.231l-10.39 7.91-.195.035-4.068-9.688a12.87 12.87 0 0 0-5.79-6.353 1.167 1.167 0 0 0-1.097 2.059A10.53 10.53 0 0 1 28.99 9.92l3.865 9.202-11.17 1.983A6.01 6.01 0 0 0 17.7 23.75l-.703 1.088a7.42 7.42 0 0 0-1.193 4.04c0 1.055.22 2.08.652 3.048a7.403 7.403 0 0 0 1.843 2.51l.947.843a6.833 6.833 0 0 0 4.546 1.73h2.789c1.256 2.895 4.14 4.925 7.49 4.925 3.349 0 6.233-2.03 7.489-4.926h14.274a1.166 1.166 0 0 0 0-2.333H42.18c.033-.298.052-.6.052-.907 0-.392-.03-.777-.083-1.154h13.685a1.166 1.166 0 0 0 0-2.333H41.45c-1.31-2.764-4.124-4.68-7.379-4.68-3.254 0-6.068 1.916-7.378 4.68h-8.358a5.072 5.072 0 0 1-.192-1.18h3.295a2.663 2.663 0 0 0 2.658-2.66 2.663 2.663 0 0 0-2.658-2.661h-.433c.338-.182.705-.31 1.088-.379l13.895-2.467h19.847c.644 0 1.166-.522 1.166-1.166zm-22.93 8.166a5.838 5.838 0 0 1 5.83 5.834 5.838 5.838 0 0 1-5.83 5.833 5.838 5.838 0 0 1-5.83-5.833 5.838 5.838 0 0 1 5.83-5.834zm-8.11 6.74h-2.168a4.505 4.505 0 0 1-2.997-1.14l-.947-.842c-.029-.025-.056-.052-.084-.078h6.228a8.206 8.206 0 0 0-.031 2.06zm-4.196-8.234c0 .18-.147.328-.327.328h-2.843c.102-.226.221-.445.357-.655h2.486c.18 0 .327.147.327.327zm19.859-7.84h-2.28l2.28-1.735v1.736z"/>
        <path d="M52.336 23.01a1.166 1.166 0 0 0 0 2.333h3.11a1.166 1.166 0 0 0 0-2.334h-3.11z"/>
        <path fill-rule="nonzero" d="M18.266 19.5c.736.427 1.58.657 2.461.657a4.93 4.93 0 0 0 4.923-4.926 4.935 4.935 0 0 0-2.599-4.342 7.133 7.133 0 0 0-6.683-9.603c-3.929 0-7.125 3.198-7.125 7.13v.039a7.799 7.799 0 0 0-5.665 7.485c0 4.29 3.487 7.778 7.773 7.778a7.758 7.758 0 0 0 6.915-4.218zm-6.915 1.885c-3 0-5.44-2.443-5.44-5.445a5.457 5.457 0 0 1 4.082-5.271c.21-.054 1.128-.173 1.358-.173 1.63 0 3.16.722 4.198 1.98a1.163 1.163 0 0 0 1.642.158c.496-.41.567-1.146.157-1.643A7.747 7.747 0 0 0 11.58 8.17a4.8 4.8 0 0 1 4.787-4.55 4.8 4.8 0 0 1 4.082 7.31 1.167 1.167 0 0 0 .772 1.758 2.594 2.594 0 0 1-.495 5.137c-.804 0-1.549-.365-2.045-1.002a1.166 1.166 0 0 0-2.051.436 5.43 5.43 0 0 1-5.28 4.127zM7.643 3.889A3.827 3.827 0 0 0 3.822.065 3.827 3.827 0 0 0 0 3.889a3.827 3.827 0 0 0 3.822 3.824 3.827 3.827 0 0 0 3.821-3.824zm-5.311 0c0-.822.668-1.49 1.49-1.49a1.492 1.492 0 0 1 0 2.98c-.822 0-1.49-.668-1.49-1.49z"/>
    </g>
</svg>
