<svg xmlns="http://www.w3.org/2000/svg" width="44" height="44" viewBox="0 0 44 44">
    <g fill="none" fill-rule="evenodd">
        <path d="M0 0h44v44H0z"/>
        <circle cx="22" cy="22" r="21" stroke="#FFF" stroke-width="2"/>
        <path fill="#FFF" d="M28.135 12h-12.27A3.87 3.87 0 0 0 12 15.865v12.27A3.87 3.87 0 0 0 15.865 32h12.27A3.87 3.87 0 0 0 32 28.135v-12.27A3.87 3.87 0 0 0 28.135 12zm1.109 2.306l.442-.002v3.39l-3.38.01-.012-3.39 2.95-.008zm-10.098 5.64A3.516 3.516 0 0 1 22 18.48c1.175 0 2.214.581 2.854 1.468.417.578.667 1.286.667 2.053 0 1.94-1.58 3.52-3.521 3.52-1.94 0-3.52-1.58-3.52-3.52 0-.767.25-1.475.666-2.053zm10.906 8.189c0 1.057-.86 1.917-1.917 1.917h-12.27a1.919 1.919 0 0 1-1.917-1.917v-8.188h2.987A5.429 5.429 0 0 0 16.532 22 5.475 5.475 0 0 0 22 27.47 5.475 5.475 0 0 0 27.47 22c0-.726-.148-1.418-.404-2.053h2.986v8.188z"/>
    </g>
</svg>
