<svg xmlns="http://www.w3.org/2000/svg" width="70" height="60" viewBox="0 0 70 60">
    <g fill="#CACACA" fill-rule="evenodd">
        <path d="M27 12a6 6 0 1 0 0-12 6 6 0 0 0-6 6 6 6 0 0 0 6 6zM68.301 49.582v-2.096c0-3.61-2.91-6.536-6.499-6.536a13.08 13.08 0 0 0-9.588-7.72l-8.677-12.128a1.69 1.69 0 0 0-2.372-.389 1.716 1.716 0 0 0-.387 2.385l7.066 9.874h-7.177l-1.163-2.486a3.385 3.385 0 0 0-3.95-1.846L30.484 30v-.813l6.915-1.234a3.416 3.416 0 0 0 2.753-3.962 3.406 3.406 0 0 0-3.939-2.769l-5.729 1.022v-3.117c0-2.83-2.283-5.127-5.097-5.127-3.046 0-5.28 2.769-5.073 4.89-.037.74-.024 13.342-.024 14.082h-5.508c-7.226 0-13.083 5.892-13.083 13.16v3.45C.76 49.582 0 50.347 0 51.291 0 52.235.76 53 1.699 53h5.817c-.001-.05-.015-.096-.015-.146 0-.534.08-1.049.158-1.563.758-5.026 5.042-8.903 10.248-8.903 5.205 0 9.49 3.877 10.247 8.903.078.514.158 1.029.158 1.563 0 .05-.013.096-.014.146h9.797c-.001-.05-.015-.096-.015-.146 0-.534.08-1.049.158-1.563.758-5.026 5.042-8.903 10.248-8.903 5.205 0 9.49 3.877 10.248 8.903.077.514.157 1.029.157 1.563 0 .05-.013.096-.014.146H68.3c.938 0 1.699-.765 1.699-1.71 0-.943-.76-1.708-1.699-1.708z"/>
        <path fill-rule="nonzero" d="M18 46a7 7 0 0 0-7 7 7 7 0 0 0 7 7 7 7 0 0 0 7-7 7 7 0 0 0-7-7zm0 8.484a1.485 1.485 0 1 1 0-2.969 1.485 1.485 0 0 1 0 2.97zM48 46a7 7 0 0 0-7 7 7 7 0 0 0 7 7 7 7 0 0 0 7-7 7 7 0 0 0-7-7zm0 8.484A1.484 1.484 0 1 1 48 51.517 1.484 1.484 0 0 1 48 54.484z"/>
    </g>
</svg>
