<svg xmlns="http://www.w3.org/2000/svg" width="65" height="52" viewBox="0 0 65 52">
    <g fill="#CACACA" fill-rule="evenodd">
        <path d="M32.521 10.59L9.424 29.712a.55.55 0 0 1-.02.12.554.554 0 0 0-.02.12v19.365c0 .7.254 1.305.763 1.816.51.51 1.112.767 1.808.767h15.424V36.41h10.284v15.493h15.424c.696 0 1.3-.257 1.808-.768.508-.51.764-1.116.764-1.816V29.954a.57.57 0 0 0-.04-.241L32.52 10.589z"/>
        <path d="M64.454 25.355l-8.796-7.342V1.553c0-.376-.12-.686-.362-.928-.24-.242-.548-.363-.923-.363H46.66c-.375 0-.683.12-.924.363-.24.242-.361.552-.361.928V9.42l-9.801-8.23C34.718.49 33.7.14 32.522.14s-2.196.35-3.053 1.05L.587 25.354a1.173 1.173 0 0 0-.442.867c-.027.363.067.68.281.949l2.49 2.985c.215.242.496.39.844.444.322.028.643-.067.965-.282L32.52 7.04l27.797 23.279c.214.188.495.281.843.281h.12a1.37 1.37 0 0 0 .845-.443l2.49-2.985a1.31 1.31 0 0 0 .28-.95 1.177 1.177 0 0 0-.442-.866z"/>
    </g>
</svg>
