<svg xmlns="http://www.w3.org/2000/svg" width="42" height="42" viewBox="0 0 42 42">
    <path fill="#F04B31" fill-rule="evenodd" d="M21 0C9.403 0 0 9.403 0 21s9.403 21 21 21 21-9.403 21-21S32.597 0 21 0zm16.716 14.297l-5.766 1.772a11.968 11.968 0 0 0-2.466-3.563 11.968 11.968 0 0 0-3.562-2.465l1.772-5.766c2.231.89 4.275 2.24 6.028 3.984a18.043 18.043 0 0 1 3.994 6.038zM21 30c-4.969 0-9-4.031-9-9s4.031-9 9-9 9 4.031 9 9-4.031 9-9 9zM8.269 8.269a17.886 17.886 0 0 1 6.028-3.985l1.772 5.766a11.968 11.968 0 0 0-3.563 2.466 11.968 11.968 0 0 0-2.465 3.562l-5.766-1.772A18.14 18.14 0 0 1 8.269 8.27zM4.284 27.703l5.766-1.772a11.968 11.968 0 0 0 2.466 3.563 11.968 11.968 0 0 0 3.562 2.465l-1.772 5.766a18.026 18.026 0 0 1-6.028-3.984 18.043 18.043 0 0 1-3.994-6.038zm29.447 6.028a17.886 17.886 0 0 1-6.028 3.985l-1.772-5.766a11.968 11.968 0 0 0 3.563-2.466 11.968 11.968 0 0 0 2.465-3.562l5.766 1.772a18.14 18.14 0 0 1-3.994 6.037z"/>
</svg>
