<svg xmlns="http://www.w3.org/2000/svg" width="61" height="64" viewBox="0 0 61 64">
    <defs>
        <radialGradient id="a" r="100%" fx="50%" fy="50%" gradientTransform="matrix(0 1 -.99216 0 .996 0)">
            <stop offset="0%" stop-color="#FFC9BE"/>
            <stop offset="100%" stop-color="#ED3F23"/>
        </radialGradient>
    </defs>
    <g fill="none" fill-rule="evenodd">
        <path fill="#4A4A4A" d="M17.298 5.015h2.035v1.88h-2.035z"/>
        <path fill="#F79280" d="M18.23 25.043h4.207v4.174H18.23zM18.23 15.304h4.207v4.174H18.23zM18.23 34.087h4.207v4.174H18.23z"/>
        <path fill="#4A4A4A" d="M21.368 5.015h2.035v1.88h-2.035zM25.438 5.015h2.035v1.88h-2.035z"/>
        <path fill="#4A4A4A" fill-rule="nonzero" d="M14.118 49.019h16.803l2.99-2.947-2.99-2.946H14.118V1.88h24.548v11.033H50.75v-2.395L40.08 0H12.21v43.126H0v5.893h5.978v-4.012H30.13l1.08 1.065-1.08 1.066H8.14v1.88h4.07v5.015h24.42v-1.88H14.118v-3.134zM40.574 3.147l8 7.885h-8V3.147zM4.07 47.138H1.908v-2.131H4.07v2.131z"/>
        <path fill="#4A4A4A" d="M25.438 15.044H45.79v1.88H25.44zM25.438 10.03h11.193v1.88H25.438zM17.298 10.03h6.105v1.88h-6.105zM25.438 19.056h11.193v1.88H25.438z"/>
        <path fill="#4A4A4A" fill-rule="nonzero" d="M23.276 15.044h-5.978v5.893h5.978v-5.893zm-1.908 4.012h-2.162v-2.131h2.162v2.13z"/>
        <path fill="#4A4A4A" d="M25.438 24.07H45.79v1.881H25.44zM25.438 28.082h11.193v1.88H25.438z"/>
        <path fill="#4A4A4A" fill-rule="nonzero" d="M23.276 24.07h-5.978v5.893h5.978V24.07zm-1.908 4.012h-2.162v-2.13h2.162v2.13z"/>
        <path fill="#4A4A4A" d="M25.438 33.097H45.79v1.88H25.44zM25.438 37.109h11.193v1.88H25.438z"/>
        <path fill="#4A4A4A" fill-rule="nonzero" d="M17.298 38.99h5.978v-5.893h-5.978v5.892zm1.908-4.012h2.162v2.13h-2.162v-2.13z"/>
        <ellipse cx="49.782" cy="52.87" fill="url(#a)" rx="6.31" ry="6.261"/>
        <path fill="#4A4A4A" fill-rule="nonzero" d="M49.86 46.072c-3.894 0-7.06 3.122-7.06 6.958 0 3.837 3.166 6.958 7.06 6.958 3.891 0 7.059-3.12 7.059-6.958 0-3.836-3.168-6.958-7.06-6.958zm-5.152 6.958c0-2.8 2.31-5.077 5.151-5.077 2.84 0 5.151 2.277 5.151 5.077s-2.31 5.078-5.15 5.078c-2.841 0-5.152-2.278-5.152-5.078z"/>
        <path fill="#4A4A4A" fill-rule="nonzero" d="M50.75 42.102V14.919h-1.908v27.183c-5.597.478-10.144 5.196-10.144 10.928 0 6.05 5.009 10.97 11.145 10.97 6.137 0 11.106-4.92 11.106-10.97 0-5.732-4.476-10.45-10.2-10.928zm-.89 20.018c-5.085 0-9.222-4.078-9.222-9.09 0-5.011 4.137-9.089 9.221-9.089 5.085 0 9.221 4.078 9.221 9.09 0 5.011-4.136 9.089-9.22 9.089z"/>
        <path fill="#4A4A4A" d="M48.842 52.641l-1.724 1.73 1.333 1.33 2.298-2.281V50.02h-1.907z"/>
    </g>
</svg>
