<svg xmlns="http://www.w3.org/2000/svg" width="63" height="64" viewBox="0 0 63 64">
    <g fill="none" fill-rule="evenodd">
        <circle cx="36" cy="24" r="4" fill="#F79280"/>
        <circle cx="26" cy="11" r="4" fill="#F79280"/>
        <path fill="#4A4A4A" fill-rule="nonzero" d="M59.861 31.916l-2.858-.363a19.966 19.966 0 0 0-3.67-5.874l2.102-9.027a1.26 1.26 0 0 0-.232-1.06 1.225 1.225 0 0 0-.965-.474h-.273c-3.488 0-6.632 2.225-7.87 5.49a19.16 19.16 0 0 0-2.69-.863 1.23 1.23 0 0 0-1.48.927c-.157.67.253 1.342.914 1.5a16.977 16.977 0 0 1 8.128 4.586c.08.12.181.226.299.311a17.402 17.402 0 0 1 3.698 6.055c.157.44.545.754 1.003.812l3.588.456c.561.07.984.557.984 1.13v6.29c0 .573-.423 1.059-.984 1.13l-3.325.422c-.478.06-.877.399-1.021.865a17.323 17.323 0 0 1-5.42 8.172c-.283.237-.446.59-.446.96v6.897c0 .619-.497 1.122-1.107 1.122h-7.138c-.61 0-1.107-.503-1.107-1.122V57.63a1.24 1.24 0 0 0-1.23-1.248H28.423c-.68 0-1.23.559-1.23 1.248v2.628c0 .619-.497 1.122-1.107 1.122h-7.138c-.61 0-1.107-.503-1.107-1.122v-4.87a1.25 1.25 0 0 0-.643-1.096c-5.523-3.04-8.954-8.882-8.954-15.247 0-9.56 7.671-17.337 17.1-17.337h1.542c.68 0 1.23-.559 1.23-1.248a1.24 1.24 0 0 0-1.23-1.248h-1.542c-9.134 0-16.825 6.381-18.967 14.977h-.901c-1.663 0-3.015-1.37-3.015-3.056 0-1.685 1.352-3.057 3.015-3.057.68 0 1.23-.558 1.23-1.247a1.24 1.24 0 0 0-1.23-1.248c-3.02 0-5.476 2.49-5.476 5.552 0 3.061 2.456 5.552 5.476 5.552h.446c-.09.774-.139 1.561-.139 2.36 0 7.03 3.659 13.502 9.597 17.07v4.143c0 1.995 1.6 3.617 3.568 3.617h7.137c1.968 0 3.568-1.622 3.568-3.617v-1.38h7.877v1.38c0 1.995 1.6 3.617 3.568 3.617h7.138c1.967 0 3.568-1.622 3.568-3.617v-6.32a19.804 19.804 0 0 0 5.5-8.195l2.557-.325C61.65 45.19 63 43.64 63 41.812v-6.29c0-1.829-1.35-3.379-3.139-3.606zm-8.594-8.223a19.609 19.609 0 0 0-2.935-2.014 6.038 6.038 0 0 1 4.316-3.915l-1.38 5.93z"/>
        <path fill="#4A4A4A" d="M48.981 31.68a1.23 1.23 0 0 0-.87-.366c-.323 0-.64.133-.87.365-.228.232-.36.554-.36.882 0 .329.132.65.36.882.23.232.547.366.87.366.324 0 .642-.134.87-.366.23-.232.36-.553.36-.882 0-.328-.13-.65-.36-.882zM36.083 7.277c-.68 0-1.231.559-1.231 1.248v4.948a1.24 1.24 0 0 0 1.23 1.248c.68 0 1.231-.559 1.231-1.248V8.525a1.24 1.24 0 0 0-1.23-1.248zM36.952 3.116a1.23 1.23 0 0 0-.87-.365c-.323 0-.64.133-.87.365a1.263 1.263 0 0 0 0 1.764c.23.233.547.366.87.366.324 0 .641-.133.87-.366.23-.232.36-.553.36-.882 0-.328-.13-.648-.36-.882zM26.086 0c-.68 0-1.23.559-1.23 1.248v2.12a1.24 1.24 0 0 0 1.23 1.248c.68 0 1.23-.559 1.23-1.248v-2.12A1.24 1.24 0 0 0 26.086 0zM14.02 39.045a1.24 1.24 0 0 0-1.23-1.248c-.68 0-1.231.559-1.231 1.248v.066a1.24 1.24 0 0 0 1.23 1.24h.008a1.24 1.24 0 0 0 1.223-1.255v-.051zM19.466 48.86a11.527 11.527 0 0 1-4.7-5.709 1.225 1.225 0 0 0-1.59-.718 1.253 1.253 0 0 0-.709 1.611 14.026 14.026 0 0 0 5.72 6.948c.2.124.42.182.639.182.415 0 .82-.213 1.052-.599a1.258 1.258 0 0 0-.412-1.714z"/>
        <path fill="#4A4A4A" fill-rule="nonzero" d="M26.086 5.995c-2.85 0-5.168 2.35-5.168 5.24 0 2.889 2.318 5.24 5.168 5.24s5.168-2.351 5.168-5.24c0-2.89-2.318-5.24-5.168-5.24zm0 7.984c-1.493 0-2.707-1.231-2.707-2.744 0-1.514 1.214-2.745 2.707-2.745 1.493 0 2.707 1.231 2.707 2.745 0 1.513-1.214 2.744-2.707 2.744zM41.59 26.448h-1.108a5.261 5.261 0 0 0 .768-2.744c0-2.89-2.318-5.24-5.167-5.24-2.85 0-5.168 2.35-5.168 5.24a5.26 5.26 0 0 0 .767 2.744h-6.088c-.68 0-1.23.559-1.23 1.248a1.24 1.24 0 0 0 1.23 1.247H41.59c.68 0 1.23-.558 1.23-1.247a1.24 1.24 0 0 0-1.23-1.248zm-5.507 0c-1.493 0-2.708-1.23-2.708-2.744 0-1.514 1.215-2.745 2.708-2.745 1.492 0 2.707 1.231 2.707 2.745 0 1.513-1.215 2.744-2.707 2.744z"/>
    </g>
</svg>
