<svg xmlns="http://www.w3.org/2000/svg" xmlns:xlink="http://www.w3.org/1999/xlink" width="60" height="68" viewBox="0 0 60 68">
    <defs>
        <path id="a" d="M0 .156h59.778v31.136H0z"/>
        <path id="c" d="M.293.296h34.71v35.012H.292z"/>
    </defs>
    <g fill="none" fill-rule="evenodd">
        <g transform="translate(0 36.412)">
            <mask id="b" fill="#fff">
                <use xlink:href="#a"/>
            </mask>
            <path fill="#CACACA" d="M29.566 31.292c-9.421-.183-17.743-3.57-24.46-10.617-1.728-1.812-3.133-3.939-4.672-5.932-.563-.729-.547-1.488-.133-2.32C3.708 5.575 9.151 1.513 16.633.203c1.008-.176 1.848.15 2.653.723 2.92 2.08 6.18 3.185 9.744 3.355 3.836.182 7.495-.625 10.619-2.858C41.576.046 43.392.102 45.419.667c5.765 1.605 10.148 5.037 13.25 10.165 1.458 2.409 1.516 2.522-.052 4.833-4.693 6.921-10.943 11.748-18.966 14.166-3.219.97-6.507 1.395-10.085 1.461" mask="url(#b)"/>
        </g>
        <g transform="translate(12.239 .005)">
            <mask id="d" fill="#fff">
                <use xlink:href="#c"/>
            </mask>
            <path fill="#CACACA" d="M17.713 35.308C8.104 35.243.45 27.535.295 17.969.143 8.465 7.852.486 17.441.3 26.892.115 34.84 7.919 35 17.544c.161 9.656-7.53 17.56-17.287 17.764" mask="url(#d)"/>
        </g>
    </g>
</svg>
